<svg xmlns="http://www.w3.org/2000/svg" version="1.1" xmlns:xlink="http://www.w3.org/1999/xlink" xmlns:svgjs="http://svgjs.dev/svgjs" width="1500" height="1500" viewBox="0 0 1500 1500"><rect width="1500" height="1500" fill="#0a1627"></rect><g transform="matrix(0.6666666666666666,0,0,0.6666666666666666,250.0614451582013,400.6164642375169)"><svg viewBox="0 0 353 247" data-background-color="#0a1627" preserveAspectRatio="xMidYMid meet" height="1049" width="1500" xmlns="http://www.w3.org/2000/svg" xmlns:xlink="http://www.w3.org/1999/xlink"><g id="tight-bounds" transform="matrix(1,0,0,1,-0.021690140845066708,-0.09999999999999432)"><svg viewBox="0 0 353.04338028169013 247.2" height="247.2" width="353.04338028169013"><g><svg viewBox="0 0 353.04338028169013 247.2" height="247.2" width="353.04338028169013"><g><svg viewBox="0 0 353.04338028169013 247.2" height="247.2" width="353.04338028169013"><g id="textblocktransform"><svg viewBox="0 0 353.04338028169013 247.2" height="247.2" width="353.04338028169013" id="textblock"><g><svg viewBox="0 0 353.04338028169013 247.2" height="247.2" width="353.04338028169013"><g transform="matrix(1,0,0,1,0,0)"><svg width="353.04338028169013" viewBox="1.75 -35.5 50.7 35.5" height="247.2" data-palette-color="#fe0039"><path d="M35.1-32.65L35.1-32.65 51.45-5Q52.45-3.35 52.45-2.23 52.45-1.1 51.55-0.55 50.65 0 49.45 0L49.45 0 33.35 0Q30.9 0 30.2-0.9L30.2-0.9Q30-1.2 29.65-1.95L29.65-1.95 28.2-5.05Q27.55-6.5 25.15-6.7L25.15-6.7 15.7-6.7Q14.65-6.7 14.1-6.5 13.55-6.3 13.2-5.6L13.2-5.6 11.25-1.55Q10.75-0.65 10.15-0.33 9.55 0 8.4 0L8.4 0 3.9 0Q1.95 0 1.8-1.4L1.8-1.4Q1.75-1.6 1.75-1.8L1.75-1.8Q1.75-2.95 2.5-4L2.5-4 18.15-31.6Q20.4-35.5 25.45-35.5L25.45-35.5 29.45-35.5Q33.45-35.5 35.1-32.65ZM18.9-19.85L18.9-19.85 16.6-15.3Q16.4-14.85 16.4-14.5L16.4-14.5Q16.4-13.2 17.65-13.2L17.65-13.2 22.2-13.2Q23.25-13.2 23.65-13.73 24.05-14.25 24.05-14.65 24.05-15.05 23.9-15.45L23.9-15.45 22-19.75Q21.4-21.05 20.45-21.05 19.5-21.05 18.9-19.85Z" opacity="1" transform="matrix(1,0,0,1,0,0)" fill="#fe0039" class="wordmark-text-0" data-fill-palette-color="primary" id="text-0"></path></svg></g></svg></g></svg></g></svg></g><g></g></svg></g><defs></defs></svg><rect width="353.04338028169013" height="247.2" fill="none" stroke="none" visibility="hidden"></rect></g></svg></g></svg>